<?xml version="1.0" standalone="no"?>
<!DOCTYPE svg PUBLIC "-//W3C//DTD SVG 20010904//EN"
 "http://www.w3.org/TR/2001/REC-SVG-20010904/DTD/svg10.dtd">
<svg version="1.0" xmlns="http://www.w3.org/2000/svg"
 width="1404.000000pt" height="1404.000000pt" viewBox="0 0 1404.000000 1404.000000"
 preserveAspectRatio="xMidYMid meet">
<metadata>
Created by potrace 1.14, written by Peter Selinger 2001-2017
</metadata>
<g transform="translate(0.000000,1404.000000) scale(0.100000,-0.100000)"
fill="#000000" stroke="none">
<path d="M3438 10105 c-2 -2 -134 -7 -293 -10 -160 -4 -321 -8 -360 -10 -227
-12 -297 -16 -360 -20 -38 -3 -110 -7 -160 -10 -49 -3 -108 -8 -130 -10 -79
-8 -151 -16 -186 -21 -20 -2 -52 -7 -70 -9 -37 -5 -179 -30 -219 -40 -14 -3
-36 -7 -50 -10 -24 -4 -133 -37 -230 -68 -60 -19 -260 -104 -275 -117 -6 -5
-15 -7 -18 -3 -4 3 -7 1 -7 -5 0 -7 -5 -12 -10 -12 -12 0 -168 -88 -186 -105
-6 -5 -38 -28 -69 -50 -55 -37 -232 -206 -283 -268 -108 -132 -216 -331 -275
-507 -94 -276 -118 -635 -62 -930 3 -19 8 -46 10 -60 2 -14 11 -54 20 -90 8
-36 18 -74 20 -84 20 -87 98 -291 137 -361 16 -27 34 -61 41 -75 7 -14 17 -32
24 -40 7 -8 26 -33 43 -55 125 -160 382 -360 627 -487 62 -32 113 -55 113 -52
0 4 7 1 15 -6 8 -7 15 -9 15 -5 0 4 7 2 15 -5 8 -7 15 -9 15 -6 0 4 9 2 19 -4
23 -12 124 -34 249 -55 38 -6 118 -15 182 -20 30 -3 81 -8 113 -10 178 -17
591 -30 1212 -40 187 -3 349 -7 360 -9 11 -2 27 0 36 5 9 5 19 6 22 2 4 -3
127 -7 274 -9 1153 -13 1802 -29 2023 -48 343 -31 433 -65 494 -189 70 -144
50 -296 -54 -410 -39 -43 -122 -100 -149 -103 -3 0 -24 -3 -46 -7 -87 -14
-317 -26 -630 -32 -115 -2 -210 -5 -210 -5 0 -5 -934 -10 -2334 -12 l-1674 -2
-26 -26 c-14 -14 -53 -57 -86 -95 -33 -39 -62 -72 -65 -75 -3 -3 -57 -68 -120
-145 -63 -77 -117 -142 -120 -145 -3 -3 -27 -34 -55 -70 -27 -36 -52 -67 -55
-70 -3 -3 -25 -32 -50 -65 -25 -33 -47 -62 -50 -65 -4 -3 -77 -102 -163 -220
-86 -118 -160 -219 -164 -225 -35 -46 -163 -244 -163 -252 0 -6 -3 -13 -7 -15
-5 -1 -16 -19 -25 -40 -16 -34 -16 -37 0 -51 25 -23 67 -30 227 -42 355 -26
1360 -38 3220 -39 1378 0 1799 5 2217 29 262 15 298 17 438 29 41 4 98 9 125
11 28 3 66 7 85 10 56 8 123 17 145 20 67 9 112 17 125 20 8 2 33 7 56 10 22
3 56 10 74 15 19 5 36 8 38 5 3 -2 12 0 22 5 9 5 30 12 46 14 41 8 230 70 286
94 87 38 183 86 223 111 286 178 427 318 592 586 22 36 83 163 83 173 0 6 4
12 8 14 16 6 109 290 127 388 1 8 5 31 9 50 3 19 8 46 11 60 14 72 20 173 20
340 -1 184 -6 257 -30 385 -4 22 -13 60 -20 85 -7 25 -13 48 -13 53 -4 25 -36
124 -43 132 -5 5 -9 15 -9 21 0 7 -17 48 -37 91 -20 43 -37 80 -38 83 -4 14
-46 81 -95 150 -53 75 -125 157 -186 210 -47 41 -201 150 -212 150 -6 0 -12 4
-14 8 -4 10 -199 119 -228 127 -3 1 -18 7 -35 14 -112 48 -223 80 -395 117
-42 8 -148 25 -245 39 -11 1 -47 6 -80 9 -33 4 -79 9 -103 12 -24 2 -82 7
-130 10 -48 2 -116 7 -152 9 -65 5 -220 11 -470 20 -74 3 -632 8 -1240 10
-1919 9 -2082 12 -2198 52 -71 24 -138 87 -176 167 -43 92 -13 404 60 624 30
89 44 122 102 237 41 82 65 122 146 240 85 124 258 300 419 425 56 44 107 84
114 90 7 5 14 10 16 10 2 0 42 25 88 55 76 51 384 210 469 244 96 37 306 149
347 185 27 23 23 32 -19 40 -18 3 -44 8 -58 11 -14 3 -83 7 -153 10 -71 3
-132 7 -137 10 -4 2 -9 3 -12 0z"/>
<path d="M5686 10103 c-1 -2 -171 -5 -377 -8 -341 -5 -584 -11 -584 -15 0 -1
-20 -3 -45 -4 -46 -4 -83 -10 -155 -26 -22 -5 -56 -12 -75 -15 -19 -3 -43 -8
-52 -11 -9 -3 -25 -7 -35 -9 -155 -32 -495 -140 -628 -199 -16 -7 -50 -22 -74
-32 -142 -60 -453 -219 -459 -236 -2 -4 -8 -8 -14 -8 -5 0 -29 -13 -53 -30
-24 -16 -46 -30 -50 -30 -3 0 -11 -5 -18 -10 -7 -6 -59 -45 -117 -87 -289
-210 -504 -449 -610 -678 -46 -99 -90 -205 -85 -205 3 0 0 -11 -5 -24 -7 -19
-5 -26 8 -31 23 -10 283 -12 289 -2 2 4 9 4 15 1 15 -10 108 -10 108 -1 0 5 5
5 11 1 14 -9 103 -9 117 0 6 3 13 2 16 -3 3 -5 21 -5 41 -1 19 4 35 5 35 1 0
-3 16 -6 35 -6 19 0 35 2 35 5 0 3 186 6 413 6 485 2 1531 12 2842 29 237 3
436 6 443 6 6 0 29 0 50 0 20 0 61 0 91 0 35 0 58 5 68 15 14 13 109 134 193
244 14 18 32 41 40 50 8 10 56 71 105 135 50 65 95 123 100 129 12 12 161 206
185 240 14 20 201 270 218 291 4 6 28 39 52 75 25 36 50 71 57 78 6 6 15 21
18 32 3 11 11 20 16 20 5 0 9 6 9 14 0 8 4 16 9 18 5 2 30 42 56 90 46 87 64
141 47 151 -10 7 -156 17 -307 22 -121 4 -991 18 -1015 16 -8 -1 -24 -1 -35
-1 -80 2 -927 4 -929 3z"/>
<path d="M8270 10082 c-23 -25 -100 -110 -154 -172 -12 -14 -40 -47 -61 -75
-22 -27 -49 -59 -60 -71 -11 -12 -31 -37 -45 -55 -14 -18 -29 -37 -35 -44 -5
-6 -26 -31 -45 -55 -19 -25 -40 -52 -47 -60 -6 -8 -37 -46 -67 -85 -31 -38
-69 -86 -84 -105 -16 -19 -57 -73 -93 -120 -84 -112 -82 -109 -99 -128 -8 -10
-26 -33 -40 -52 -13 -19 -44 -60 -68 -90 -61 -78 -62 -79 -112 -145 -24 -33
-48 -64 -52 -70 -5 -5 -25 -32 -46 -60 -20 -27 -40 -51 -44 -53 -5 -2 -8 -8
-8 -12 0 -5 -27 -45 -60 -88 -33 -44 -60 -83 -60 -88 0 -4 -7 -16 -17 -26 -19
-21 -26 -33 -72 -119 -57 -107 -66 -160 -66 -389 l0 -204 25 -7 c35 -10 291
-98 315 -109 11 -4 58 -23 105 -41 155 -59 454 -226 468 -261 2 -4 7 -8 12 -8
24 0 218 -194 270 -270 8 -12 20 -28 26 -34 6 -6 33 -49 60 -96 110 -186 157
-310 172 -445 9 -88 9 -850 0 -930 -12 -102 -31 -190 -58 -260 -6 -16 -11 -31
-11 -32 0 -2 -8 -19 -19 -38 -11 -20 -20 -42 -20 -50 0 -8 -4 -15 -10 -15 -5
0 -10 -4 -10 -10 0 -13 -65 -146 -101 -205 -16 -27 -32 -58 -36 -67 -3 -10 -9
-18 -13 -18 -4 0 -13 -13 -20 -30 -7 -16 -16 -30 -21 -30 -5 0 -9 -5 -9 -11 0
-6 -6 -16 -12 -23 -7 -7 -29 -32 -48 -56 -131 -159 -321 -302 -605 -455 -71
-38 -135 -75 -153 -90 -45 -34 -81 -76 -76 -88 8 -21 50 -37 118 -45 101 -12
1369 -2 1382 10 2 2 6 181 9 398 6 414 12 803 21 1330 4 280 5 334 4 383 0 6
2 143 5 302 9 473 13 773 14 898 1 64 4 117 9 117 4 0 26 -18 50 -40 23 -22
42 -38 42 -36 0 2 17 -13 38 -33 21 -20 58 -54 83 -76 25 -22 81 -72 124 -112
44 -39 91 -81 104 -92 40 -35 270 -242 306 -276 12 -11 55 -49 96 -85 41 -36
83 -74 95 -85 11 -11 47 -43 80 -72 62 -54 97 -84 154 -137 19 -17 73 -65 120
-106 47 -41 87 -77 90 -80 16 -16 209 -189 287 -258 17 -14 93 -83 207 -187
12 -11 59 -53 104 -94 46 -41 100 -90 121 -110 21 -20 71 -65 111 -101 39 -36
84 -76 99 -90 59 -55 180 -161 241 -211 36 -30 67 -56 70 -59 16 -19 142 -101
180 -118 83 -37 181 -46 290 -27 58 10 139 55 188 105 43 44 117 164 127 207
2 10 14 52 25 93 12 41 23 89 26 105 20 117 24 148 30 210 3 39 8 86 10 105 5
43 14 440 18 730 l2 215 -56 55 c-31 30 -91 87 -134 125 -43 39 -97 88 -120
110 -35 32 -183 168 -230 210 -60 53 -127 114 -206 186 -52 47 -124 112 -160
145 -36 32 -70 63 -76 69 -6 5 -42 37 -79 70 -38 33 -78 69 -90 80 -11 11 -61
56 -110 100 -50 44 -95 85 -101 90 -6 6 -46 42 -89 80 -42 39 -87 79 -99 90
-12 11 -60 54 -106 95 -46 41 -95 86 -109 99 -14 13 -55 49 -90 80 -35 31 -69
61 -75 67 -6 5 -38 34 -71 63 -33 29 -78 70 -100 90 -22 20 -80 72 -130 116
-49 44 -102 91 -117 105 -23 22 -98 89 -172 155 -25 22 -144 128 -180 160 -12
11 -62 56 -111 100 -49 44 -112 100 -139 125 -28 25 -55 50 -62 55 -6 6 -41
37 -79 70 -37 33 -80 71 -95 85 -56 51 -107 97 -180 160 -41 36 -84 73 -95 83
-11 11 -42 38 -69 60 -27 23 -58 50 -68 60 -10 9 -22 17 -27 17 -5 0 -15 7
-22 16 -20 24 -175 124 -191 123 -7 -1 -24 -13 -38 -27z"/>
<path d="M12889 10106 c-2 -2 -114 -7 -249 -10 -302 -9 -307 -9 -319 -21 -18
-18 -28 -214 -36 -705 -3 -151 -5 -275 -6 -275 0 0 -2 -259 -4 -575 -7 -1170
-25 -2167 -40 -2190 -3 -5 -1 -11 5 -15 6 -4 8 -10 5 -16 -3 -5 -8 -62 -11
-126 -2 -65 -6 -152 -9 -193 -5 -71 -7 -102 -20 -260 -3 -35 -7 -76 -9 -90 -3
-14 -7 -50 -11 -81 -3 -31 -8 -67 -10 -80 -3 -13 -7 -41 -11 -63 -3 -22 -7
-43 -9 -47 -2 -3 -7 -21 -10 -40 -11 -60 -53 -169 -87 -226 -36 -59 -111 -140
-140 -149 -10 -3 -18 -10 -18 -15 0 -5 -6 -9 -14 -9 -8 0 -21 -6 -28 -13 -7
-7 -29 -19 -48 -27 -54 -21 -157 -89 -164 -107 -4 -9 0 -25 8 -37 25 -38 195
-203 322 -313 104 -89 135 -115 174 -148 25 -20 54 -44 65 -53 154 -129 292
-223 355 -245 128 -43 360 -60 593 -43 53 3 103 9 110 11 6 2 28 6 47 9 103
15 222 68 311 137 176 137 334 377 363 554 34 202 45 1553 31 3620 -3 385 -6
948 -8 1252 -2 304 -6 555 -10 559 -8 8 -59 10 -677 19 -234 4 -428 9 -431 11
-3 2 -8 2 -10 0z"/>
</g>
</svg>
